<svg xmlns="http://www.w3.org/2000/svg" xmlns:xlink="http://www.w3.org/1999/xlink" width="192" zoomAndPan="magnify" viewBox="0 0 144 143.999998" height="192" preserveAspectRatio="xMidYMid meet" version="1.2"><defs><clipPath id="f76b2eefb8"><path d="M 72 0 C 32.234375 0 0 32.234375 0 72 C 0 111.765625 32.234375 144 72 144 C 111.765625 144 144 111.765625 144 72 C 144 32.234375 111.765625 0 72 0 Z M 72 0 "/></clipPath><clipPath id="272c4f2a56"><path d="M 33 29.09375 L 75 29.09375 L 75 67 L 33 67 Z M 33 29.09375 "/></clipPath><clipPath id="63d77ef2ce"><path d="M 69 77 L 111 77 L 111 114.59375 L 69 114.59375 Z M 69 77 "/></clipPath><clipPath id="76df36c449"><path d="M 77 33 L 114.59375 33 L 114.59375 75 L 77 75 Z M 77 33 "/></clipPath><clipPath id="5d88eb0fb9"><path d="M 29.09375 69 L 67 69 L 67 111 L 29.09375 111 Z M 29.09375 69 "/></clipPath></defs><g id="8ddfd28386"><g clip-rule="nonzero" clip-path="url(#f76b2eefb8)"><path style="fill:none;stroke-width:64;stroke-linecap:butt;stroke-linejoin:miter;stroke:#ffe0c2;stroke-opacity:1;stroke-miterlimit:4;" d="M 96.000004 -0.00000266667 C 42.979168 -0.00000266667 -0.00000166667 42.979167 -0.00000166667 96.000003 C -0.00000166667 149.020839 42.979168 192.000009 96.000004 192.000009 C 149.02084 192.000009 192.00001 149.020839 192.00001 96.000003 C 192.00001 42.979167 149.02084 -0.00000266667 96.000004 -0.00000266667 Z M 96.000004 -0.00000266667 " transform="matrix(0.75,0,0,0.75,0.00000125,0.000002)"/></g><g clip-rule="nonzero" clip-path="url(#272c4f2a56)"><path style=" stroke:none;fill-rule:nonzero;fill:#ffe0c2;fill-opacity:1;" d="M 68.542969 29.09375 L 66.8125 31.398438 L 69.273438 33.242188 C 50.5625 34.414062 35.886719 47.546875 33.136719 66.027344 L 35.984375 66.449219 C 38.542969 49.234375 51.621094 37.375 68.953125 36.128906 L 66.8125 37.734375 L 68.542969 40.035156 L 74.300781 35.71875 C 74.480469 35.582031 74.621094 35.410156 74.722656 35.210938 C 74.824219 35.007812 74.875 34.792969 74.875 34.566406 C 74.875 34.339844 74.824219 34.125 74.722656 33.921875 C 74.621094 33.71875 74.480469 33.550781 74.300781 33.414062 Z M 68.542969 29.09375 "/></g><path style=" stroke:none;fill-rule:nonzero;fill:#ffe0c2;fill-opacity:1;" d="M 79.195312 46.082031 C 78.480469 46.082031 77.78125 46.171875 77.089844 46.34375 C 76.398438 46.519531 75.738281 46.777344 75.109375 47.113281 C 74.480469 47.453125 73.902344 47.859375 73.375 48.34375 C 72.851562 48.824219 72.390625 49.359375 71.996094 49.957031 C 71.484375 49.183594 70.863281 48.507812 70.132812 47.9375 C 69.40625 47.363281 68.605469 46.921875 67.730469 46.605469 C 66.859375 46.289062 65.960938 46.121094 65.03125 46.09375 C 64.105469 46.070312 63.199219 46.191406 62.308594 46.457031 C 61.421875 46.726562 60.597656 47.125 59.839844 47.660156 C 59.078125 48.191406 58.421875 48.828125 57.867188 49.574219 C 57.316406 50.316406 56.890625 51.128906 56.601562 52.007812 C 56.308594 52.890625 56.160156 53.792969 56.160156 54.722656 C 56.160156 54.886719 56.160156 55.054688 56.175781 55.222656 C 55.332031 55.519531 54.554688 55.933594 53.839844 56.472656 C 53.125 57.007812 52.507812 57.640625 51.992188 58.371094 C 51.472656 59.097656 51.078125 59.890625 50.808594 60.742188 C 50.535156 61.59375 50.402344 62.464844 50.402344 63.359375 C 50.402344 63.527344 50.402344 63.691406 50.417969 63.859375 C 49.574219 64.15625 48.796875 64.574219 48.082031 65.109375 C 47.367188 65.648438 46.753906 66.28125 46.234375 67.007812 C 45.71875 67.738281 45.324219 68.527344 45.054688 69.378906 C 44.78125 70.230469 44.644531 71.101562 44.644531 71.996094 C 44.644531 72.890625 44.78125 73.761719 45.054688 74.613281 C 45.324219 75.464844 45.71875 76.253906 46.234375 76.980469 C 46.753906 77.710938 47.367188 78.34375 48.082031 78.882812 C 48.796875 79.417969 49.574219 79.835938 50.417969 80.128906 C 50.402344 80.300781 50.402344 80.46875 50.402344 80.636719 C 50.402344 81.527344 50.535156 82.402344 50.808594 83.253906 C 51.078125 84.105469 51.472656 84.894531 51.992188 85.625 C 52.507812 86.351562 53.125 86.984375 53.839844 87.523438 C 54.554688 88.058594 55.332031 88.476562 56.175781 88.769531 C 56.160156 88.9375 56.160156 89.105469 56.160156 89.273438 C 56.160156 90.199219 56.308594 91.105469 56.601562 91.984375 C 56.890625 92.863281 57.316406 93.675781 57.867188 94.421875 C 58.421875 95.164062 59.078125 95.804688 59.839844 96.335938 C 60.597656 96.867188 61.421875 97.269531 62.308594 97.535156 C 63.199219 97.800781 64.105469 97.921875 65.03125 97.898438 C 65.960938 97.875 66.859375 97.703125 67.730469 97.386719 C 68.605469 97.074219 69.40625 96.628906 70.132812 96.058594 C 70.863281 95.484375 71.484375 94.8125 71.996094 94.039062 C 72.507812 94.8125 73.128906 95.484375 73.859375 96.058594 C 74.589844 96.628906 75.390625 97.074219 76.261719 97.386719 C 77.132812 97.703125 78.035156 97.875 78.960938 97.898438 C 79.886719 97.921875 80.796875 97.800781 81.683594 97.535156 C 82.574219 97.269531 83.394531 96.867188 84.15625 96.335938 C 84.914062 95.804688 85.570312 95.164062 86.125 94.421875 C 86.679688 93.675781 87.101562 92.863281 87.394531 91.984375 C 87.6875 91.105469 87.832031 90.199219 87.832031 89.273438 C 87.832031 89.105469 87.832031 88.9375 87.816406 88.769531 C 88.660156 88.476562 89.441406 88.058594 90.15625 87.523438 C 90.871094 86.984375 91.484375 86.351562 92.003906 85.625 C 92.519531 84.894531 92.914062 84.105469 93.183594 83.253906 C 93.457031 82.402344 93.59375 81.527344 93.59375 80.636719 C 93.59375 80.46875 93.59375 80.300781 93.574219 80.132812 C 94.417969 79.835938 95.199219 79.421875 95.910156 78.882812 C 96.625 78.347656 97.242188 77.714844 97.757812 76.984375 C 98.273438 76.257812 98.667969 75.464844 98.941406 74.617188 C 99.210938 73.765625 99.347656 72.890625 99.347656 72 C 99.347656 71.105469 99.210938 70.234375 98.941406 69.382812 C 98.667969 68.53125 98.273438 67.738281 97.757812 67.011719 C 97.242188 66.28125 96.625 65.648438 95.910156 65.113281 C 95.199219 64.574219 94.417969 64.160156 93.574219 63.863281 C 93.59375 63.691406 93.59375 63.527344 93.59375 63.359375 C 93.59375 62.464844 93.457031 61.59375 93.183594 60.742188 C 92.914062 59.890625 92.519531 59.097656 92.003906 58.371094 C 91.484375 57.640625 90.871094 57.007812 90.15625 56.472656 C 89.441406 55.933594 88.660156 55.519531 87.816406 55.222656 C 87.832031 55.054688 87.832031 54.886719 87.832031 54.722656 C 87.832031 54.152344 87.777344 53.59375 87.664062 53.035156 C 87.554688 52.480469 87.390625 51.941406 87.171875 51.417969 C 86.957031 50.894531 86.691406 50.394531 86.375 49.921875 C 86.058594 49.453125 85.703125 49.015625 85.300781 48.613281 C 84.898438 48.214844 84.464844 47.855469 83.992188 47.542969 C 83.519531 47.226562 83.023438 46.960938 82.5 46.742188 C 81.976562 46.523438 81.4375 46.359375 80.878906 46.25 C 80.324219 46.140625 79.761719 46.082031 79.195312 46.082031 Z M 70.558594 67.753906 C 65.613281 68.242188 61.917969 71.191406 61.917969 74.875 L 64.796875 74.875 C 64.796875 72.832031 67.316406 71.0625 70.558594 70.648438 L 70.558594 89.273438 C 70.558594 89.679688 70.519531 90.082031 70.433594 90.476562 C 70.351562 90.875 70.226562 91.257812 70.0625 91.628906 C 69.898438 92 69.699219 92.351562 69.460938 92.679688 C 69.222656 93.007812 68.953125 93.308594 68.648438 93.578125 C 68.347656 93.851562 68.023438 94.085938 67.671875 94.289062 C 67.320312 94.492188 66.949219 94.65625 66.5625 94.78125 C 66.175781 94.90625 65.78125 94.988281 65.378906 95.027344 C 64.972656 95.070312 64.570312 95.066406 64.167969 95.023438 C 63.765625 94.976562 63.371094 94.890625 62.984375 94.765625 C 62.597656 94.636719 62.230469 94.46875 61.882812 94.265625 C 61.53125 94.058594 61.207031 93.820312 60.910156 93.542969 C 60.609375 93.269531 60.34375 92.96875 60.105469 92.636719 C 59.871094 92.304688 59.671875 91.953125 59.511719 91.582031 C 59.351562 91.210938 59.230469 90.824219 59.152344 90.425781 C 59.070312 90.027344 59.035156 89.625 59.039062 89.222656 C 59.046875 88.816406 59.09375 88.414062 59.183594 88.019531 C 59.273438 87.617188 59.203125 87.25 58.976562 86.90625 C 58.945312 86.863281 58.898438 86.839844 58.867188 86.800781 C 59.878906 85.351562 60.414062 83.742188 60.480469 81.976562 C 60.5 81.261719 60.378906 80.574219 60.113281 79.910156 C 59.847656 79.246094 59.460938 78.660156 58.953125 78.160156 L 56.957031 80.230469 C 57.425781 80.71875 57.640625 81.300781 57.601562 81.976562 C 57.519531 83.339844 57.050781 84.558594 56.195312 85.625 C 55.65625 85.324219 55.179688 84.945312 54.761719 84.492188 C 54.347656 84.035156 54.015625 83.527344 53.765625 82.964844 C 53.515625 82.402344 53.363281 81.8125 53.304688 81.199219 C 53.25 80.585938 53.289062 79.980469 53.429688 79.382812 C 53.472656 79.191406 53.476562 78.996094 53.4375 78.804688 C 53.402344 78.613281 53.332031 78.433594 53.222656 78.273438 C 53.113281 78.109375 52.976562 77.972656 52.8125 77.867188 C 52.648438 77.757812 52.46875 77.6875 52.277344 77.652344 C 51.613281 77.535156 50.988281 77.308594 50.402344 76.972656 C 49.816406 76.636719 49.308594 76.207031 48.875 75.691406 C 48.4375 75.171875 48.105469 74.597656 47.875 73.964844 C 47.644531 73.328125 47.527344 72.671875 47.527344 72 C 47.527344 71.324219 47.644531 70.667969 47.875 70.035156 C 48.105469 69.398438 48.4375 68.824219 48.875 68.304688 C 49.308594 67.789062 49.816406 67.363281 50.402344 67.023438 C 50.988281 66.6875 51.613281 66.460938 52.277344 66.34375 C 52.292969 66.34375 52.308594 66.328125 52.328125 66.324219 C 54.445312 66.742188 56.160156 69.808594 56.160156 73.4375 L 59.039062 73.4375 C 59.039062 68.488281 56.617188 64.480469 53.304688 63.558594 C 53.304688 63.496094 53.28125 63.421875 53.28125 63.359375 C 53.28125 62.683594 53.398438 62.027344 53.628906 61.394531 C 53.859375 60.757812 54.191406 60.183594 54.625 59.664062 C 55.0625 59.148438 55.570312 58.722656 56.15625 58.382812 C 56.742188 58.046875 57.367188 57.820312 58.03125 57.703125 C 58.050781 57.703125 58.0625 57.6875 58.082031 57.683594 C 60.203125 58.105469 61.917969 61.171875 61.917969 64.796875 L 64.796875 64.796875 C 64.796875 59.851562 62.375 55.84375 59.0625 54.921875 C 59.0625 54.859375 59.039062 54.785156 59.039062 54.722656 C 59.039062 54.34375 59.078125 53.96875 59.152344 53.597656 C 59.222656 53.226562 59.332031 52.867188 59.476562 52.515625 C 59.621094 52.167969 59.800781 51.835938 60.011719 51.519531 C 60.21875 51.207031 60.460938 50.917969 60.726562 50.648438 C 60.992188 50.382812 61.285156 50.144531 61.597656 49.933594 C 61.914062 49.722656 62.246094 49.546875 62.59375 49.398438 C 62.945312 49.253906 63.304688 49.144531 63.675781 49.074219 C 64.046875 49 64.421875 48.960938 64.796875 48.960938 C 65.175781 48.960938 65.550781 49 65.921875 49.074219 C 66.292969 49.144531 66.652344 49.253906 67.003906 49.398438 C 67.351562 49.546875 67.683594 49.722656 67.996094 49.933594 C 68.3125 50.144531 68.601562 50.382812 68.871094 50.648438 C 69.136719 50.917969 69.375 51.207031 69.585938 51.519531 C 69.796875 51.835938 69.972656 52.167969 70.117188 52.515625 C 70.261719 52.867188 70.371094 53.226562 70.445312 53.597656 C 70.519531 53.96875 70.558594 54.34375 70.558594 54.722656 Z M 90.710938 63.359375 C 90.710938 63.421875 90.691406 63.492188 90.691406 63.558594 C 87.375 64.480469 84.953125 68.488281 84.953125 73.4375 L 87.832031 73.4375 C 87.832031 69.808594 89.546875 66.742188 91.667969 66.320312 C 91.6875 66.320312 91.703125 66.339844 91.71875 66.339844 C 92.382812 66.457031 93.007812 66.683594 93.59375 67.023438 C 94.179688 67.359375 94.6875 67.789062 95.125 68.304688 C 95.558594 68.820312 95.890625 69.398438 96.121094 70.03125 C 96.351562 70.667969 96.46875 71.320312 96.46875 71.996094 C 96.46875 72.671875 96.351562 73.328125 96.121094 73.960938 C 95.890625 74.597656 95.558594 75.171875 95.125 75.6875 C 94.6875 76.207031 94.179688 76.632812 93.59375 76.972656 C 93.007812 77.308594 92.382812 77.535156 91.71875 77.652344 C 91.527344 77.6875 91.347656 77.757812 91.183594 77.863281 C 91.019531 77.972656 90.882812 78.105469 90.773438 78.269531 C 90.667969 78.433594 90.59375 78.609375 90.558594 78.804688 C 90.523438 78.996094 90.523438 79.1875 90.566406 79.378906 C 90.707031 79.980469 90.75 80.585938 90.691406 81.199219 C 90.632812 81.8125 90.480469 82.398438 90.230469 82.964844 C 89.980469 83.527344 89.648438 84.035156 89.234375 84.492188 C 88.816406 84.945312 88.339844 85.324219 87.804688 85.621094 C 86.945312 84.554688 86.476562 83.339844 86.394531 81.976562 C 86.355469 81.300781 86.570312 80.71875 87.039062 80.230469 L 85.042969 78.160156 C 84.53125 78.660156 84.144531 79.246094 83.878906 79.910156 C 83.613281 80.574219 83.492188 81.261719 83.515625 81.976562 C 83.578125 83.742188 84.113281 85.351562 85.125 86.800781 C 85.089844 86.839844 85.042969 86.863281 85.015625 86.90625 C 84.785156 87.25 84.71875 87.617188 84.804688 88.019531 C 84.898438 88.414062 84.945312 88.816406 84.953125 89.222656 C 84.960938 89.628906 84.921875 90.03125 84.84375 90.429688 C 84.765625 90.832031 84.648438 91.214844 84.484375 91.589844 C 84.324219 91.964844 84.128906 92.316406 83.890625 92.648438 C 83.65625 92.980469 83.390625 93.28125 83.089844 93.558594 C 82.792969 93.832031 82.464844 94.074219 82.117188 94.28125 C 81.765625 94.484375 81.398438 94.652344 81.011719 94.78125 C 80.625 94.910156 80.230469 94.996094 79.828125 95.039062 C 79.421875 95.085938 79.019531 95.085938 78.613281 95.046875 C 78.207031 95.003906 77.8125 94.921875 77.425781 94.796875 C 77.039062 94.671875 76.667969 94.507812 76.316406 94.304688 C 75.964844 94.101562 75.636719 93.863281 75.335938 93.589844 C 75.035156 93.320312 74.765625 93.019531 74.527344 92.6875 C 74.289062 92.359375 74.085938 92.007812 73.925781 91.636719 C 73.761719 91.261719 73.636719 90.878906 73.554688 90.480469 C 73.472656 90.082031 73.433594 89.679688 73.4375 89.273438 L 73.4375 83.320312 C 76.761719 82.410156 79.195312 78.394531 79.195312 73.4375 L 76.316406 73.4375 C 76.316406 76.496094 75.09375 79.160156 73.4375 80.175781 L 73.4375 54.722656 C 73.4375 54.34375 73.472656 53.96875 73.546875 53.597656 C 73.621094 53.226562 73.730469 52.867188 73.875 52.515625 C 74.019531 52.167969 74.195312 51.835938 74.40625 51.519531 C 74.617188 51.207031 74.855469 50.917969 75.125 50.648438 C 75.390625 50.382812 75.679688 50.144531 75.996094 49.933594 C 76.308594 49.722656 76.640625 49.546875 76.992188 49.398438 C 77.339844 49.253906 77.699219 49.144531 78.070312 49.074219 C 78.441406 49 78.816406 48.960938 79.195312 48.960938 C 79.574219 48.960938 79.949219 49 80.320312 49.074219 C 80.691406 49.144531 81.050781 49.253906 81.398438 49.398438 C 81.75 49.546875 82.082031 49.722656 82.394531 49.933594 C 82.707031 50.144531 83 50.382812 83.265625 50.648438 C 83.535156 50.917969 83.773438 51.207031 83.984375 51.519531 C 84.195312 51.835938 84.371094 52.167969 84.515625 52.515625 C 84.660156 52.867188 84.769531 53.226562 84.84375 53.597656 C 84.917969 53.96875 84.953125 54.34375 84.953125 54.722656 C 84.953125 54.785156 84.933594 54.855469 84.929688 54.921875 C 81.617188 55.84375 79.195312 59.851562 79.195312 64.796875 L 82.074219 64.796875 C 82.074219 61.171875 83.789062 58.105469 85.910156 57.683594 C 85.929688 57.683594 85.941406 57.699219 85.960938 57.703125 C 86.625 57.820312 87.25 58.046875 87.835938 58.382812 C 88.421875 58.722656 88.933594 59.148438 89.367188 59.664062 C 89.800781 60.183594 90.132812 60.757812 90.367188 61.394531 C 90.597656 62.027344 90.710938 62.683594 90.710938 63.359375 Z M 90.710938 63.359375 "/><g clip-rule="nonzero" clip-path="url(#63d77ef2ce)"><path style=" stroke:none;fill-rule:nonzero;fill:#ffe0c2;fill-opacity:1;" d="M 75.042969 107.863281 L 77.179688 106.261719 L 75.453125 103.957031 L 69.691406 108.277344 C 69.511719 108.414062 69.371094 108.582031 69.269531 108.785156 C 69.167969 108.988281 69.117188 109.203125 69.117188 109.429688 C 69.117188 109.65625 69.167969 109.871094 69.269531 110.070312 C 69.371094 110.273438 69.511719 110.445312 69.691406 110.582031 L 75.453125 114.898438 L 77.179688 112.59375 L 74.722656 110.753906 C 93.429688 109.578125 108.109375 96.445312 110.859375 77.964844 L 108.011719 77.546875 C 105.449219 94.757812 92.371094 106.617188 75.042969 107.863281 Z M 75.042969 107.863281 "/></g><g clip-rule="nonzero" clip-path="url(#76df36c449)"><path style=" stroke:none;fill-rule:nonzero;fill:#ffe0c2;fill-opacity:1;" d="M 110.753906 69.273438 C 109.578125 50.5625 96.445312 35.886719 77.96875 33.136719 L 77.542969 35.984375 C 94.757812 38.539062 106.617188 51.617188 107.863281 68.953125 L 106.261719 66.8125 L 103.957031 68.542969 L 108.277344 74.300781 C 108.414062 74.480469 108.582031 74.621094 108.785156 74.722656 C 108.988281 74.824219 109.203125 74.875 109.429688 74.875 C 109.65625 74.875 109.871094 74.824219 110.070312 74.722656 C 110.273438 74.621094 110.445312 74.480469 110.582031 74.300781 L 114.898438 68.542969 L 112.59375 66.8125 Z M 110.753906 69.273438 "/></g><g clip-rule="nonzero" clip-path="url(#5d88eb0fb9)"><path style=" stroke:none;fill-rule:nonzero;fill:#ffe0c2;fill-opacity:1;" d="M 36.128906 75.042969 L 37.734375 77.179688 L 40.035156 75.453125 L 35.71875 69.691406 C 35.574219 69.519531 35.402344 69.386719 35.203125 69.292969 C 35 69.195312 34.789062 69.148438 34.566406 69.148438 C 34.34375 69.148438 34.128906 69.195312 33.929688 69.292969 C 33.726562 69.386719 33.554688 69.519531 33.414062 69.691406 L 29.09375 75.453125 L 31.398438 77.179688 L 33.242188 74.722656 C 34.414062 93.429688 47.546875 108.109375 66.027344 110.859375 L 66.449219 108.011719 C 49.234375 105.449219 37.375 92.371094 36.128906 75.042969 Z M 36.128906 75.042969 "/></g></g></svg>